<svg height="511.99998pt" viewBox="1 1 511.99998 511.99998" width="511.99998pt" xmlns="http://www.w3.org/2000/svg"><path d="m256 512c-141.386719 0-256-114.617188-256-256s114.613281-256 256-256 256 114.613281 256 256c-.167969 141.316406-114.683594 255.832031-256 256zm0-480c-123.710938 0-224 100.289062-224 224s100.289062 224 224 224 224-100.289062 224-224c-.132812-123.65625-100.34375-223.867188-224-224zm0 0"/><path d="m208 368c-8.835938 0-16-7.164062-16-16v-192c0-8.835938 7.164062-16 16-16s16 7.164062 16 16v192c0 8.835938-7.164062 16-16 16zm0 0"/><path d="m304 368c-8.835938 0-16-7.164062-16-16v-192c0-8.835938 7.164062-16 16-16s16 7.164062 16 16v192c0 8.835938-7.164062 16-16 16zm0 0"/></svg>